<?xml version="1.0" encoding="utf-8" standalone="no"?>
<!DOCTYPE svg PUBLIC "-//W3C//DTD SVG 1.1//EN"
  "http://www.w3.org/Graphics/SVG/1.1/DTD/svg11.dtd">
<!-- Created with matplotlib (https://matplotlib.org/) -->
<svg height="557.28pt" version="1.1" viewBox="0 0 1152 557.28" width="1152pt" xmlns="http://www.w3.org/2000/svg" xmlns:xlink="http://www.w3.org/1999/xlink">
 <defs>
  <style type="text/css">
*{stroke-linecap:butt;stroke-linejoin:round;white-space:pre;}
  </style>
 </defs>
 <g id="figure_1">
  <g id="patch_1">
   <path d="M 0 557.28 
L 1152 557.28 
L 1152 0 
L 0 0 
z
" style="fill:#ffffff;"/>
  </g>
  <g id="axes_1">
   <g id="patch_2">
    <path d="M 144 495.9792 
L 1036.8 495.9792 
L 1036.8 66.8736 
L 144 66.8736 
z
" style="fill:#ffffff;"/>
   </g>
   <g id="matplotlib.axis_1">
    <g id="xtick_1">
     <g id="line2d_1">
      <defs>
       <path d="M 0 0 
L 0 3.5 
" id="me0a7c42e12" style="stroke:#000000;stroke-width:0.8;"/>
      </defs>
      <g>
       <use style="stroke:#000000;stroke-width:0.8;" x="242.715552" xlink:href="#me0a7c42e12" y="495.9792"/>
      </g>
     </g>
     <g id="text_1">
      <!-- 2018-03 -->
      <defs>
       <path d="M 19.1875 8.296875 
L 53.609375 8.296875 
L 53.609375 0 
L 7.328125 0 
L 7.328125 8.296875 
Q 12.9375 14.109375 22.625 23.890625 
Q 32.328125 33.6875 34.8125 36.53125 
Q 39.546875 41.84375 41.421875 45.53125 
Q 43.3125 49.21875 43.3125 52.78125 
Q 43.3125 58.59375 39.234375 62.25 
Q 35.15625 65.921875 28.609375 65.921875 
Q 23.96875 65.921875 18.8125 64.3125 
Q 13.671875 62.703125 7.8125 59.421875 
L 7.8125 69.390625 
Q 13.765625 71.78125 18.9375 73 
Q 24.125 74.21875 28.421875 74.21875 
Q 39.75 74.21875 46.484375 68.546875 
Q 53.21875 62.890625 53.21875 53.421875 
Q 53.21875 48.921875 51.53125 44.890625 
Q 49.859375 40.875 45.40625 35.40625 
Q 44.1875 33.984375 37.640625 27.21875 
Q 31.109375 20.453125 19.1875 8.296875 
z
" id="DejaVuSans-50"/>
       <path d="M 31.78125 66.40625 
Q 24.171875 66.40625 20.328125 58.90625 
Q 16.5 51.421875 16.5 36.375 
Q 16.5 21.390625 20.328125 13.890625 
Q 24.171875 6.390625 31.78125 6.390625 
Q 39.453125 6.390625 43.28125 13.890625 
Q 47.125 21.390625 47.125 36.375 
Q 47.125 51.421875 43.28125 58.90625 
Q 39.453125 66.40625 31.78125 66.40625 
z
M 31.78125 74.21875 
Q 44.046875 74.21875 50.515625 64.515625 
Q 56.984375 54.828125 56.984375 36.375 
Q 56.984375 17.96875 50.515625 8.265625 
Q 44.046875 -1.421875 31.78125 -1.421875 
Q 19.53125 -1.421875 13.0625 8.265625 
Q 6.59375 17.96875 6.59375 36.375 
Q 6.59375 54.828125 13.0625 64.515625 
Q 19.53125 74.21875 31.78125 74.21875 
z
" id="DejaVuSans-48"/>
       <path d="M 12.40625 8.296875 
L 28.515625 8.296875 
L 28.515625 63.921875 
L 10.984375 60.40625 
L 10.984375 69.390625 
L 28.421875 72.90625 
L 38.28125 72.90625 
L 38.28125 8.296875 
L 54.390625 8.296875 
L 54.390625 0 
L 12.40625 0 
z
" id="DejaVuSans-49"/>
       <path d="M 31.78125 34.625 
Q 24.75 34.625 20.71875 30.859375 
Q 16.703125 27.09375 16.703125 20.515625 
Q 16.703125 13.921875 20.71875 10.15625 
Q 24.75 6.390625 31.78125 6.390625 
Q 38.8125 6.390625 42.859375 10.171875 
Q 46.921875 13.96875 46.921875 20.515625 
Q 46.921875 27.09375 42.890625 30.859375 
Q 38.875 34.625 31.78125 34.625 
z
M 21.921875 38.8125 
Q 15.578125 40.375 12.03125 44.71875 
Q 8.5 49.078125 8.5 55.328125 
Q 8.5 64.0625 14.71875 69.140625 
Q 20.953125 74.21875 31.78125 74.21875 
Q 42.671875 74.21875 48.875 69.140625 
Q 55.078125 64.0625 55.078125 55.328125 
Q 55.078125 49.078125 51.53125 44.71875 
Q 48 40.375 41.703125 38.8125 
Q 48.828125 37.15625 52.796875 32.3125 
Q 56.78125 27.484375 56.78125 20.515625 
Q 56.78125 9.90625 50.3125 4.234375 
Q 43.84375 -1.421875 31.78125 -1.421875 
Q 19.734375 -1.421875 13.25 4.234375 
Q 6.78125 9.90625 6.78125 20.515625 
Q 6.78125 27.484375 10.78125 32.3125 
Q 14.796875 37.15625 21.921875 38.8125 
z
M 18.3125 54.390625 
Q 18.3125 48.734375 21.84375 45.5625 
Q 25.390625 42.390625 31.78125 42.390625 
Q 38.140625 42.390625 41.71875 45.5625 
Q 45.3125 48.734375 45.3125 54.390625 
Q 45.3125 60.0625 41.71875 63.234375 
Q 38.140625 66.40625 31.78125 66.40625 
Q 25.390625 66.40625 21.84375 63.234375 
Q 18.3125 60.0625 18.3125 54.390625 
z
" id="DejaVuSans-56"/>
       <path d="M 4.890625 31.390625 
L 31.203125 31.390625 
L 31.203125 23.390625 
L 4.890625 23.390625 
z
" id="DejaVuSans-45"/>
       <path d="M 40.578125 39.3125 
Q 47.65625 37.796875 51.625 33 
Q 55.609375 28.21875 55.609375 21.1875 
Q 55.609375 10.40625 48.1875 4.484375 
Q 40.765625 -1.421875 27.09375 -1.421875 
Q 22.515625 -1.421875 17.65625 -0.515625 
Q 12.796875 0.390625 7.625 2.203125 
L 7.625 11.71875 
Q 11.71875 9.328125 16.59375 8.109375 
Q 21.484375 6.890625 26.8125 6.890625 
Q 36.078125 6.890625 40.9375 10.546875 
Q 45.796875 14.203125 45.796875 21.1875 
Q 45.796875 27.640625 41.28125 31.265625 
Q 36.765625 34.90625 28.71875 34.90625 
L 20.21875 34.90625 
L 20.21875 43.015625 
L 29.109375 43.015625 
Q 36.375 43.015625 40.234375 45.921875 
Q 44.09375 48.828125 44.09375 54.296875 
Q 44.09375 59.90625 40.109375 62.90625 
Q 36.140625 65.921875 28.71875 65.921875 
Q 24.65625 65.921875 20.015625 65.03125 
Q 15.375 64.15625 9.8125 62.3125 
L 9.8125 71.09375 
Q 15.4375 72.65625 20.34375 73.4375 
Q 25.25 74.21875 29.59375 74.21875 
Q 40.828125 74.21875 47.359375 69.109375 
Q 53.90625 64.015625 53.90625 55.328125 
Q 53.90625 49.265625 50.4375 45.09375 
Q 46.96875 40.921875 40.578125 39.3125 
z
" id="DejaVuSans-51"/>
      </defs>
      <g transform="translate(221.824146 510.577637)scale(0.1 -0.1)">
       <use xlink:href="#DejaVuSans-50"/>
       <use x="63.623047" xlink:href="#DejaVuSans-48"/>
       <use x="127.246094" xlink:href="#DejaVuSans-49"/>
       <use x="190.869141" xlink:href="#DejaVuSans-56"/>
       <use x="254.492188" xlink:href="#DejaVuSans-45"/>
       <use x="290.576172" xlink:href="#DejaVuSans-48"/>
       <use x="354.199219" xlink:href="#DejaVuSans-51"/>
      </g>
     </g>
    </g>
    <g id="xtick_2">
     <g id="line2d_2">
      <g>
       <use style="stroke:#000000;stroke-width:0.8;" x="379.106236" xlink:href="#me0a7c42e12" y="495.9792"/>
      </g>
     </g>
     <g id="text_2">
      <!-- 2018-05 -->
      <defs>
       <path d="M 10.796875 72.90625 
L 49.515625 72.90625 
L 49.515625 64.59375 
L 19.828125 64.59375 
L 19.828125 46.734375 
Q 21.96875 47.46875 24.109375 47.828125 
Q 26.265625 48.1875 28.421875 48.1875 
Q 40.625 48.1875 47.75 41.5 
Q 54.890625 34.8125 54.890625 23.390625 
Q 54.890625 11.625 47.5625 5.09375 
Q 40.234375 -1.421875 26.90625 -1.421875 
Q 22.3125 -1.421875 17.546875 -0.640625 
Q 12.796875 0.140625 7.71875 1.703125 
L 7.71875 11.625 
Q 12.109375 9.234375 16.796875 8.0625 
Q 21.484375 6.890625 26.703125 6.890625 
Q 35.15625 6.890625 40.078125 11.328125 
Q 45.015625 15.765625 45.015625 23.390625 
Q 45.015625 31 40.078125 35.4375 
Q 35.15625 39.890625 26.703125 39.890625 
Q 22.75 39.890625 18.8125 39.015625 
Q 14.890625 38.140625 10.796875 36.28125 
z
" id="DejaVuSans-53"/>
      </defs>
      <g transform="translate(358.21483 510.577637)scale(0.1 -0.1)">
       <use xlink:href="#DejaVuSans-50"/>
       <use x="63.623047" xlink:href="#DejaVuSans-48"/>
       <use x="127.246094" xlink:href="#DejaVuSans-49"/>
       <use x="190.869141" xlink:href="#DejaVuSans-56"/>
       <use x="254.492188" xlink:href="#DejaVuSans-45"/>
       <use x="290.576172" xlink:href="#DejaVuSans-48"/>
       <use x="354.199219" xlink:href="#DejaVuSans-53"/>
      </g>
     </g>
    </g>
    <g id="xtick_3">
     <g id="line2d_3">
      <g>
       <use style="stroke:#000000;stroke-width:0.8;" x="515.49692" xlink:href="#me0a7c42e12" y="495.9792"/>
      </g>
     </g>
     <g id="text_3">
      <!-- 2018-07 -->
      <defs>
       <path d="M 8.203125 72.90625 
L 55.078125 72.90625 
L 55.078125 68.703125 
L 28.609375 0 
L 18.3125 0 
L 43.21875 64.59375 
L 8.203125 64.59375 
z
" id="DejaVuSans-55"/>
      </defs>
      <g transform="translate(494.605513 510.577637)scale(0.1 -0.1)">
       <use xlink:href="#DejaVuSans-50"/>
       <use x="63.623047" xlink:href="#DejaVuSans-48"/>
       <use x="127.246094" xlink:href="#DejaVuSans-49"/>
       <use x="190.869141" xlink:href="#DejaVuSans-56"/>
       <use x="254.492188" xlink:href="#DejaVuSans-45"/>
       <use x="290.576172" xlink:href="#DejaVuSans-48"/>
       <use x="354.199219" xlink:href="#DejaVuSans-55"/>
      </g>
     </g>
    </g>
    <g id="xtick_4">
     <g id="line2d_4">
      <g>
       <use style="stroke:#000000;stroke-width:0.8;" x="654.123516" xlink:href="#me0a7c42e12" y="495.9792"/>
      </g>
     </g>
     <g id="text_4">
      <!-- 2018-09 -->
      <defs>
       <path d="M 10.984375 1.515625 
L 10.984375 10.5 
Q 14.703125 8.734375 18.5 7.8125 
Q 22.3125 6.890625 25.984375 6.890625 
Q 35.75 6.890625 40.890625 13.453125 
Q 46.046875 20.015625 46.78125 33.40625 
Q 43.953125 29.203125 39.59375 26.953125 
Q 35.25 24.703125 29.984375 24.703125 
Q 19.046875 24.703125 12.671875 31.3125 
Q 6.296875 37.9375 6.296875 49.421875 
Q 6.296875 60.640625 12.9375 67.421875 
Q 19.578125 74.21875 30.609375 74.21875 
Q 43.265625 74.21875 49.921875 64.515625 
Q 56.59375 54.828125 56.59375 36.375 
Q 56.59375 19.140625 48.40625 8.859375 
Q 40.234375 -1.421875 26.421875 -1.421875 
Q 22.703125 -1.421875 18.890625 -0.6875 
Q 15.09375 0.046875 10.984375 1.515625 
z
M 30.609375 32.421875 
Q 37.25 32.421875 41.125 36.953125 
Q 45.015625 41.5 45.015625 49.421875 
Q 45.015625 57.28125 41.125 61.84375 
Q 37.25 66.40625 30.609375 66.40625 
Q 23.96875 66.40625 20.09375 61.84375 
Q 16.21875 57.28125 16.21875 49.421875 
Q 16.21875 41.5 20.09375 36.953125 
Q 23.96875 32.421875 30.609375 32.421875 
z
" id="DejaVuSans-57"/>
      </defs>
      <g transform="translate(633.23211 510.577637)scale(0.1 -0.1)">
       <use xlink:href="#DejaVuSans-50"/>
       <use x="63.623047" xlink:href="#DejaVuSans-48"/>
       <use x="127.246094" xlink:href="#DejaVuSans-49"/>
       <use x="190.869141" xlink:href="#DejaVuSans-56"/>
       <use x="254.492188" xlink:href="#DejaVuSans-45"/>
       <use x="290.576172" xlink:href="#DejaVuSans-48"/>
       <use x="354.199219" xlink:href="#DejaVuSans-57"/>
      </g>
     </g>
    </g>
    <g id="xtick_5">
     <g id="line2d_5">
      <g>
       <use style="stroke:#000000;stroke-width:0.8;" x="790.5142" xlink:href="#me0a7c42e12" y="495.9792"/>
      </g>
     </g>
     <g id="text_5">
      <!-- 2018-11 -->
      <g transform="translate(769.622794 510.577637)scale(0.1 -0.1)">
       <use xlink:href="#DejaVuSans-50"/>
       <use x="63.623047" xlink:href="#DejaVuSans-48"/>
       <use x="127.246094" xlink:href="#DejaVuSans-49"/>
       <use x="190.869141" xlink:href="#DejaVuSans-56"/>
       <use x="254.492188" xlink:href="#DejaVuSans-45"/>
       <use x="290.576172" xlink:href="#DejaVuSans-49"/>
       <use x="354.199219" xlink:href="#DejaVuSans-49"/>
      </g>
     </g>
    </g>
    <g id="xtick_6">
     <g id="line2d_6">
      <g>
       <use style="stroke:#000000;stroke-width:0.8;" x="926.904884" xlink:href="#me0a7c42e12" y="495.9792"/>
      </g>
     </g>
     <g id="text_6">
      <!-- 2019-01 -->
      <g transform="translate(906.013477 510.577637)scale(0.1 -0.1)">
       <use xlink:href="#DejaVuSans-50"/>
       <use x="63.623047" xlink:href="#DejaVuSans-48"/>
       <use x="127.246094" xlink:href="#DejaVuSans-49"/>
       <use x="190.869141" xlink:href="#DejaVuSans-57"/>
       <use x="254.492188" xlink:href="#DejaVuSans-45"/>
       <use x="290.576172" xlink:href="#DejaVuSans-48"/>
       <use x="354.199219" xlink:href="#DejaVuSans-49"/>
      </g>
     </g>
    </g>
    <g id="text_7">
     <!-- login_timestamp -->
     <defs>
      <path d="M 9.421875 75.984375 
L 18.40625 75.984375 
L 18.40625 0 
L 9.421875 0 
z
" id="DejaVuSans-108"/>
      <path d="M 30.609375 48.390625 
Q 23.390625 48.390625 19.1875 42.75 
Q 14.984375 37.109375 14.984375 27.296875 
Q 14.984375 17.484375 19.15625 11.84375 
Q 23.34375 6.203125 30.609375 6.203125 
Q 37.796875 6.203125 41.984375 11.859375 
Q 46.1875 17.53125 46.1875 27.296875 
Q 46.1875 37.015625 41.984375 42.703125 
Q 37.796875 48.390625 30.609375 48.390625 
z
M 30.609375 56 
Q 42.328125 56 49.015625 48.375 
Q 55.71875 40.765625 55.71875 27.296875 
Q 55.71875 13.875 49.015625 6.21875 
Q 42.328125 -1.421875 30.609375 -1.421875 
Q 18.84375 -1.421875 12.171875 6.21875 
Q 5.515625 13.875 5.515625 27.296875 
Q 5.515625 40.765625 12.171875 48.375 
Q 18.84375 56 30.609375 56 
z
" id="DejaVuSans-111"/>
      <path d="M 45.40625 27.984375 
Q 45.40625 37.75 41.375 43.109375 
Q 37.359375 48.484375 30.078125 48.484375 
Q 22.859375 48.484375 18.828125 43.109375 
Q 14.796875 37.75 14.796875 27.984375 
Q 14.796875 18.265625 18.828125 12.890625 
Q 22.859375 7.515625 30.078125 7.515625 
Q 37.359375 7.515625 41.375 12.890625 
Q 45.40625 18.265625 45.40625 27.984375 
z
M 54.390625 6.78125 
Q 54.390625 -7.171875 48.1875 -13.984375 
Q 42 -20.796875 29.203125 -20.796875 
Q 24.46875 -20.796875 20.265625 -20.09375 
Q 16.0625 -19.390625 12.109375 -17.921875 
L 12.109375 -9.1875 
Q 16.0625 -11.328125 19.921875 -12.34375 
Q 23.78125 -13.375 27.78125 -13.375 
Q 36.625 -13.375 41.015625 -8.765625 
Q 45.40625 -4.15625 45.40625 5.171875 
L 45.40625 9.625 
Q 42.625 4.78125 38.28125 2.390625 
Q 33.9375 0 27.875 0 
Q 17.828125 0 11.671875 7.65625 
Q 5.515625 15.328125 5.515625 27.984375 
Q 5.515625 40.671875 11.671875 48.328125 
Q 17.828125 56 27.875 56 
Q 33.9375 56 38.28125 53.609375 
Q 42.625 51.21875 45.40625 46.390625 
L 45.40625 54.6875 
L 54.390625 54.6875 
z
" id="DejaVuSans-103"/>
      <path d="M 9.421875 54.6875 
L 18.40625 54.6875 
L 18.40625 0 
L 9.421875 0 
z
M 9.421875 75.984375 
L 18.40625 75.984375 
L 18.40625 64.59375 
L 9.421875 64.59375 
z
" id="DejaVuSans-105"/>
      <path d="M 54.890625 33.015625 
L 54.890625 0 
L 45.90625 0 
L 45.90625 32.71875 
Q 45.90625 40.484375 42.875 44.328125 
Q 39.84375 48.1875 33.796875 48.1875 
Q 26.515625 48.1875 22.3125 43.546875 
Q 18.109375 38.921875 18.109375 30.90625 
L 18.109375 0 
L 9.078125 0 
L 9.078125 54.6875 
L 18.109375 54.6875 
L 18.109375 46.1875 
Q 21.34375 51.125 25.703125 53.5625 
Q 30.078125 56 35.796875 56 
Q 45.21875 56 50.046875 50.171875 
Q 54.890625 44.34375 54.890625 33.015625 
z
" id="DejaVuSans-110"/>
      <path d="M 50.984375 -16.609375 
L 50.984375 -23.578125 
L -0.984375 -23.578125 
L -0.984375 -16.609375 
z
" id="DejaVuSans-95"/>
      <path d="M 18.3125 70.21875 
L 18.3125 54.6875 
L 36.8125 54.6875 
L 36.8125 47.703125 
L 18.3125 47.703125 
L 18.3125 18.015625 
Q 18.3125 11.328125 20.140625 9.421875 
Q 21.96875 7.515625 27.59375 7.515625 
L 36.8125 7.515625 
L 36.8125 0 
L 27.59375 0 
Q 17.1875 0 13.234375 3.875 
Q 9.28125 7.765625 9.28125 18.015625 
L 9.28125 47.703125 
L 2.6875 47.703125 
L 2.6875 54.6875 
L 9.28125 54.6875 
L 9.28125 70.21875 
z
" id="DejaVuSans-116"/>
      <path d="M 52 44.1875 
Q 55.375 50.25 60.0625 53.125 
Q 64.75 56 71.09375 56 
Q 79.640625 56 84.28125 50.015625 
Q 88.921875 44.046875 88.921875 33.015625 
L 88.921875 0 
L 79.890625 0 
L 79.890625 32.71875 
Q 79.890625 40.578125 77.09375 44.375 
Q 74.3125 48.1875 68.609375 48.1875 
Q 61.625 48.1875 57.5625 43.546875 
Q 53.515625 38.921875 53.515625 30.90625 
L 53.515625 0 
L 44.484375 0 
L 44.484375 32.71875 
Q 44.484375 40.625 41.703125 44.40625 
Q 38.921875 48.1875 33.109375 48.1875 
Q 26.21875 48.1875 22.15625 43.53125 
Q 18.109375 38.875 18.109375 30.90625 
L 18.109375 0 
L 9.078125 0 
L 9.078125 54.6875 
L 18.109375 54.6875 
L 18.109375 46.1875 
Q 21.1875 51.21875 25.484375 53.609375 
Q 29.78125 56 35.6875 56 
Q 41.65625 56 45.828125 52.96875 
Q 50 49.953125 52 44.1875 
z
" id="DejaVuSans-109"/>
      <path d="M 56.203125 29.59375 
L 56.203125 25.203125 
L 14.890625 25.203125 
Q 15.484375 15.921875 20.484375 11.0625 
Q 25.484375 6.203125 34.421875 6.203125 
Q 39.59375 6.203125 44.453125 7.46875 
Q 49.3125 8.734375 54.109375 11.28125 
L 54.109375 2.78125 
Q 49.265625 0.734375 44.1875 -0.34375 
Q 39.109375 -1.421875 33.890625 -1.421875 
Q 20.796875 -1.421875 13.15625 6.1875 
Q 5.515625 13.8125 5.515625 26.8125 
Q 5.515625 40.234375 12.765625 48.109375 
Q 20.015625 56 32.328125 56 
Q 43.359375 56 49.78125 48.890625 
Q 56.203125 41.796875 56.203125 29.59375 
z
M 47.21875 32.234375 
Q 47.125 39.59375 43.09375 43.984375 
Q 39.0625 48.390625 32.421875 48.390625 
Q 24.90625 48.390625 20.390625 44.140625 
Q 15.875 39.890625 15.1875 32.171875 
z
" id="DejaVuSans-101"/>
      <path d="M 44.28125 53.078125 
L 44.28125 44.578125 
Q 40.484375 46.53125 36.375 47.5 
Q 32.28125 48.484375 27.875 48.484375 
Q 21.1875 48.484375 17.84375 46.4375 
Q 14.5 44.390625 14.5 40.28125 
Q 14.5 37.15625 16.890625 35.375 
Q 19.28125 33.59375 26.515625 31.984375 
L 29.59375 31.296875 
Q 39.15625 29.25 43.1875 25.515625 
Q 47.21875 21.78125 47.21875 15.09375 
Q 47.21875 7.46875 41.1875 3.015625 
Q 35.15625 -1.421875 24.609375 -1.421875 
Q 20.21875 -1.421875 15.453125 -0.5625 
Q 10.6875 0.296875 5.421875 2 
L 5.421875 11.28125 
Q 10.40625 8.6875 15.234375 7.390625 
Q 20.0625 6.109375 24.8125 6.109375 
Q 31.15625 6.109375 34.5625 8.28125 
Q 37.984375 10.453125 37.984375 14.40625 
Q 37.984375 18.0625 35.515625 20.015625 
Q 33.0625 21.96875 24.703125 23.78125 
L 21.578125 24.515625 
Q 13.234375 26.265625 9.515625 29.90625 
Q 5.8125 33.546875 5.8125 39.890625 
Q 5.8125 47.609375 11.28125 51.796875 
Q 16.75 56 26.8125 56 
Q 31.78125 56 36.171875 55.265625 
Q 40.578125 54.546875 44.28125 53.078125 
z
" id="DejaVuSans-115"/>
      <path d="M 34.28125 27.484375 
Q 23.390625 27.484375 19.1875 25 
Q 14.984375 22.515625 14.984375 16.5 
Q 14.984375 11.71875 18.140625 8.90625 
Q 21.296875 6.109375 26.703125 6.109375 
Q 34.1875 6.109375 38.703125 11.40625 
Q 43.21875 16.703125 43.21875 25.484375 
L 43.21875 27.484375 
z
M 52.203125 31.203125 
L 52.203125 0 
L 43.21875 0 
L 43.21875 8.296875 
Q 40.140625 3.328125 35.546875 0.953125 
Q 30.953125 -1.421875 24.3125 -1.421875 
Q 15.921875 -1.421875 10.953125 3.296875 
Q 6 8.015625 6 15.921875 
Q 6 25.140625 12.171875 29.828125 
Q 18.359375 34.515625 30.609375 34.515625 
L 43.21875 34.515625 
L 43.21875 35.40625 
Q 43.21875 41.609375 39.140625 45 
Q 35.0625 48.390625 27.6875 48.390625 
Q 23 48.390625 18.546875 47.265625 
Q 14.109375 46.140625 10.015625 43.890625 
L 10.015625 52.203125 
Q 14.9375 54.109375 19.578125 55.046875 
Q 24.21875 56 28.609375 56 
Q 40.484375 56 46.34375 49.84375 
Q 52.203125 43.703125 52.203125 31.203125 
z
" id="DejaVuSans-97"/>
      <path d="M 18.109375 8.203125 
L 18.109375 -20.796875 
L 9.078125 -20.796875 
L 9.078125 54.6875 
L 18.109375 54.6875 
L 18.109375 46.390625 
Q 20.953125 51.265625 25.265625 53.625 
Q 29.59375 56 35.59375 56 
Q 45.5625 56 51.78125 48.09375 
Q 58.015625 40.1875 58.015625 27.296875 
Q 58.015625 14.40625 51.78125 6.484375 
Q 45.5625 -1.421875 35.59375 -1.421875 
Q 29.59375 -1.421875 25.265625 0.953125 
Q 20.953125 3.328125 18.109375 8.203125 
z
M 48.6875 27.296875 
Q 48.6875 37.203125 44.609375 42.84375 
Q 40.53125 48.484375 33.40625 48.484375 
Q 26.265625 48.484375 22.1875 42.84375 
Q 18.109375 37.203125 18.109375 27.296875 
Q 18.109375 17.390625 22.1875 11.75 
Q 26.265625 6.109375 33.40625 6.109375 
Q 40.53125 6.109375 44.609375 11.75 
Q 48.6875 17.390625 48.6875 27.296875 
z
" id="DejaVuSans-112"/>
     </defs>
     <g transform="translate(548.75 524.255762)scale(0.1 -0.1)">
      <use xlink:href="#DejaVuSans-108"/>
      <use x="27.783203" xlink:href="#DejaVuSans-111"/>
      <use x="88.964844" xlink:href="#DejaVuSans-103"/>
      <use x="152.441406" xlink:href="#DejaVuSans-105"/>
      <use x="180.224609" xlink:href="#DejaVuSans-110"/>
      <use x="243.603516" xlink:href="#DejaVuSans-95"/>
      <use x="293.603516" xlink:href="#DejaVuSans-116"/>
      <use x="332.8125" xlink:href="#DejaVuSans-105"/>
      <use x="360.595703" xlink:href="#DejaVuSans-109"/>
      <use x="458.007812" xlink:href="#DejaVuSans-101"/>
      <use x="519.53125" xlink:href="#DejaVuSans-115"/>
      <use x="571.630859" xlink:href="#DejaVuSans-116"/>
      <use x="610.839844" xlink:href="#DejaVuSans-97"/>
      <use x="672.119141" xlink:href="#DejaVuSans-109"/>
      <use x="769.53125" xlink:href="#DejaVuSans-112"/>
     </g>
    </g>
   </g>
   <g id="matplotlib.axis_2">
    <g id="ytick_1">
     <g id="line2d_7">
      <defs>
       <path d="M 0 0 
L -3.5 0 
" id="m91517d8612" style="stroke:#000000;stroke-width:0.8;"/>
      </defs>
      <g>
       <use style="stroke:#000000;stroke-width:0.8;" x="144" xlink:href="#m91517d8612" y="489.4776"/>
      </g>
     </g>
     <g id="text_8">
      <!-- 0 -->
      <g transform="translate(130.6375 493.276819)scale(0.1 -0.1)">
       <use xlink:href="#DejaVuSans-48"/>
      </g>
     </g>
    </g>
    <g id="ytick_2">
     <g id="line2d_8">
      <g>
       <use style="stroke:#000000;stroke-width:0.8;" x="144" xlink:href="#m91517d8612" y="424.4616"/>
      </g>
     </g>
     <g id="text_9">
      <!-- 5 -->
      <g transform="translate(130.6375 428.260819)scale(0.1 -0.1)">
       <use xlink:href="#DejaVuSans-53"/>
      </g>
     </g>
    </g>
    <g id="ytick_3">
     <g id="line2d_9">
      <g>
       <use style="stroke:#000000;stroke-width:0.8;" x="144" xlink:href="#m91517d8612" y="359.4456"/>
      </g>
     </g>
     <g id="text_10">
      <!-- 10 -->
      <g transform="translate(124.275 363.244819)scale(0.1 -0.1)">
       <use xlink:href="#DejaVuSans-49"/>
       <use x="63.623047" xlink:href="#DejaVuSans-48"/>
      </g>
     </g>
    </g>
    <g id="ytick_4">
     <g id="line2d_10">
      <g>
       <use style="stroke:#000000;stroke-width:0.8;" x="144" xlink:href="#m91517d8612" y="294.4296"/>
      </g>
     </g>
     <g id="text_11">
      <!-- 15 -->
      <g transform="translate(124.275 298.228819)scale(0.1 -0.1)">
       <use xlink:href="#DejaVuSans-49"/>
       <use x="63.623047" xlink:href="#DejaVuSans-53"/>
      </g>
     </g>
    </g>
    <g id="ytick_5">
     <g id="line2d_11">
      <g>
       <use style="stroke:#000000;stroke-width:0.8;" x="144" xlink:href="#m91517d8612" y="229.4136"/>
      </g>
     </g>
     <g id="text_12">
      <!-- 20 -->
      <g transform="translate(124.275 233.212819)scale(0.1 -0.1)">
       <use xlink:href="#DejaVuSans-50"/>
       <use x="63.623047" xlink:href="#DejaVuSans-48"/>
      </g>
     </g>
    </g>
    <g id="ytick_6">
     <g id="line2d_12">
      <g>
       <use style="stroke:#000000;stroke-width:0.8;" x="144" xlink:href="#m91517d8612" y="164.3976"/>
      </g>
     </g>
     <g id="text_13">
      <!-- 25 -->
      <g transform="translate(124.275 168.196819)scale(0.1 -0.1)">
       <use xlink:href="#DejaVuSans-50"/>
       <use x="63.623047" xlink:href="#DejaVuSans-53"/>
      </g>
     </g>
    </g>
    <g id="ytick_7">
     <g id="line2d_13">
      <g>
       <use style="stroke:#000000;stroke-width:0.8;" x="144" xlink:href="#m91517d8612" y="99.3816"/>
      </g>
     </g>
     <g id="text_14">
      <!-- 30 -->
      <g transform="translate(124.275 103.180819)scale(0.1 -0.1)">
       <use xlink:href="#DejaVuSans-51"/>
       <use x="63.623047" xlink:href="#DejaVuSans-48"/>
      </g>
     </g>
    </g>
   </g>
   <g id="line2d_14">
    <path clip-path="url(#p0dd9e4c12d)" d="M 184.581818 476.4744 
L 189.053644 476.4744 
L 195.761382 476.4744 
L 197.997295 476.4744 
L 202.469121 463.4712 
L 204.705034 463.4712 
L 209.17686 476.4744 
L 211.412772 476.4744 
L 215.884598 476.4744 
L 218.120511 476.4744 
L 220.356424 450.468 
L 224.828249 476.4744 
L 227.064162 437.4648 
L 229.300075 463.4712 
L 231.535988 463.4712 
L 236.007814 437.4648 
L 238.243727 476.4744 
L 240.479639 437.4648 
L 242.715552 411.4584 
L 244.951465 437.4648 
L 247.187378 463.4712 
L 249.423291 463.4712 
L 251.659204 411.4584 
L 253.895116 450.468 
L 256.131029 463.4712 
L 258.366942 463.4712 
L 260.602855 385.452 
L 262.838768 450.468 
L 265.074681 450.468 
L 267.310594 450.468 
L 269.546506 437.4648 
L 271.782419 424.4616 
L 274.018332 424.4616 
L 276.254245 463.4712 
L 278.490158 398.4552 
L 280.726071 437.4648 
L 282.961983 411.4584 
L 285.197896 411.4584 
L 287.433809 398.4552 
L 289.669722 463.4712 
L 291.905635 437.4648 
L 294.141548 359.4456 
L 296.377461 463.4712 
L 298.613373 476.4744 
L 300.849286 450.468 
L 303.085199 437.4648 
L 305.321112 437.4648 
L 307.557025 463.4712 
L 309.792938 424.4616 
L 312.02885 450.468 
L 314.264763 476.4744 
L 316.500676 437.4648 
L 318.736589 437.4648 
L 320.972502 411.4584 
L 323.208415 476.4744 
L 325.444328 424.4616 
L 327.68024 437.4648 
L 329.916153 463.4712 
L 332.152066 476.4744 
L 336.623892 450.468 
L 338.859805 463.4712 
L 341.095718 424.4616 
L 343.33163 437.4648 
L 345.567543 424.4616 
L 347.803456 463.4712 
L 350.039369 437.4648 
L 352.275282 450.468 
L 354.511195 437.4648 
L 356.747107 437.4648 
L 358.98302 463.4712 
L 361.218933 411.4584 
L 363.454846 450.468 
L 365.690759 437.4648 
L 367.926672 437.4648 
L 370.162585 450.468 
L 372.398497 437.4648 
L 374.63441 424.4616 
L 376.870323 424.4616 
L 379.106236 437.4648 
L 381.342149 424.4616 
L 383.578062 424.4616 
L 385.813974 450.468 
L 388.049887 437.4648 
L 390.2858 437.4648 
L 392.521713 463.4712 
L 394.757626 385.452 
L 396.993539 398.4552 
L 399.229452 411.4584 
L 401.465364 398.4552 
L 403.701277 424.4616 
L 405.93719 333.4392 
L 408.173103 359.4456 
L 410.409016 385.452 
L 412.644929 385.452 
L 414.880841 372.4488 
L 417.116754 424.4616 
L 419.352667 346.4424 
L 421.58858 398.4552 
L 423.824493 372.4488 
L 426.060406 398.4552 
L 428.296319 333.4392 
L 430.532231 450.468 
L 432.768144 385.452 
L 435.004057 463.4712 
L 437.23997 333.4392 
L 439.475883 346.4424 
L 441.711796 398.4552 
L 443.947708 398.4552 
L 446.183621 359.4456 
L 448.419534 398.4552 
" style="fill:none;stroke:#1f77b4;stroke-linecap:square;stroke-width:1.5;"/>
   </g>
   <g id="line2d_15">
    <path clip-path="url(#p0dd9e4c12d)" d="M 450.655447 346.4424 
L 452.89136 294.4296 
L 455.127273 320.436 
L 457.363186 307.4328 
L 459.599098 229.4136 
L 464.070924 359.4456 
L 466.306837 359.4456 
L 468.54275 268.4232 
L 470.778663 229.4136 
L 473.014576 333.4392 
L 475.250488 268.4232 
L 477.486401 268.4232 
L 479.722314 216.4104 
L 481.958227 346.4424 
L 484.19414 333.4392 
L 486.430053 229.4136 
L 488.665965 177.4008 
L 490.901878 190.404 
L 493.137791 346.4424 
L 495.373704 333.4392 
L 497.609617 151.3944 
L 499.84553 294.4296 
L 502.081443 268.4232 
L 504.317355 255.42 
L 506.553268 346.4424 
L 508.789181 203.4072 
L 511.025094 255.42 
L 513.261007 372.4488 
L 515.49692 255.42 
L 517.732832 268.4232 
L 519.968745 294.4296 
L 524.440571 294.4296 
L 526.676484 268.4232 
L 528.912397 333.4392 
L 531.14831 268.4232 
L 533.384222 151.3944 
L 535.620135 281.4264 
L 537.856048 268.4232 
L 540.091961 151.3944 
L 542.327874 333.4392 
L 546.799699 229.4136 
L 549.035612 320.436 
L 551.271525 320.436 
L 553.507438 216.4104 
L 555.743351 242.4168 
L 557.979264 216.4104 
L 560.215177 398.4552 
L 562.451089 242.4168 
L 564.687002 294.4296 
L 566.922915 294.4296 
L 569.158828 307.4328 
L 571.394741 372.4488 
L 573.630654 281.4264 
L 575.866566 216.4104 
L 578.102479 203.4072 
L 580.338392 203.4072 
L 587.046131 320.436 
L 589.282044 320.436 
L 591.517956 229.4136 
L 593.753869 255.42 
L 595.989782 242.4168 
L 598.225695 281.4264 
L 600.461608 294.4296 
L 604.933434 294.4296 
L 607.169346 164.3976 
L 609.405259 333.4392 
L 611.641172 294.4296 
L 613.877085 216.4104 
L 616.112998 346.4424 
L 618.348911 229.4136 
L 620.584823 216.4104 
L 622.820736 320.436 
L 625.056649 307.4328 
L 627.292562 242.4168 
L 629.528475 86.3784 
L 631.764388 333.4392 
L 634.000301 294.4296 
L 636.236213 346.4424 
L 638.472126 294.4296 
L 640.708039 268.4232 
L 642.943952 320.436 
L 647.415778 346.4424 
L 649.65169 294.4296 
L 651.887603 268.4232 
L 656.359429 242.4168 
L 658.595342 359.4456 
L 660.831255 385.452 
L 663.067168 216.4104 
L 665.30308 359.4456 
L 667.538993 333.4392 
L 669.774906 268.4232 
L 674.246732 320.436 
L 676.482645 177.4008 
L 678.718557 320.436 
L 680.95447 307.4328 
L 683.190383 372.4488 
L 685.426296 359.4456 
L 687.662209 320.436 
L 689.898122 372.4488 
L 692.134035 294.4296 
L 694.369947 255.42 
L 696.60586 255.42 
L 698.841773 229.4136 
L 701.077686 333.4392 
L 703.313599 346.4424 
L 705.549512 346.4424 
L 707.785424 333.4392 
L 710.021337 294.4296 
L 712.25725 333.4392 
L 714.493163 255.42 
L 716.729076 359.4456 
L 718.964989 333.4392 
L 721.200902 372.4488 
L 723.436814 320.436 
L 725.672727 398.4552 
L 727.90864 281.4264 
L 730.144553 229.4136 
L 732.380466 320.436 
L 734.616379 281.4264 
L 736.852292 216.4104 
L 739.088204 346.4424 
L 741.324117 372.4488 
L 743.56003 359.4456 
L 745.795943 281.4264 
L 748.031856 268.4232 
L 750.267769 372.4488 
L 752.503681 294.4296 
L 754.739594 424.4616 
L 756.975507 359.4456 
L 759.21142 320.436 
L 761.447333 372.4488 
L 763.683246 333.4392 
L 765.919159 320.436 
L 768.155071 346.4424 
L 770.390984 359.4456 
L 772.626897 320.436 
L 774.86281 346.4424 
L 777.098723 281.4264 
L 779.334636 411.4584 
L 781.570548 307.4328 
L 783.806461 320.436 
L 786.042374 268.4232 
L 788.278287 281.4264 
L 790.5142 281.4264 
L 792.750113 268.4232 
L 794.986026 320.436 
L 797.221938 320.436 
L 799.457851 281.4264 
L 801.693764 177.4008 
L 803.929677 294.4296 
L 806.16559 281.4264 
L 808.401503 307.4328 
L 810.637415 320.436 
L 812.873328 242.4168 
L 815.109241 411.4584 
L 817.345154 385.452 
L 819.581067 372.4488 
L 821.81698 320.436 
L 824.052893 255.42 
L 826.288805 255.42 
L 828.524718 203.4072 
L 830.760631 229.4136 
L 832.996544 281.4264 
L 835.232457 307.4328 
L 837.46837 281.4264 
L 839.704282 333.4392 
L 841.940195 372.4488 
L 844.176108 281.4264 
L 846.412021 268.4232 
L 848.647934 268.4232 
L 850.883847 216.4104 
L 853.11976 307.4328 
L 855.355672 281.4264 
L 857.591585 281.4264 
L 859.827498 268.4232 
L 862.063411 359.4456 
L 864.299324 268.4232 
L 866.535237 281.4264 
L 868.77115 307.4328 
L 871.007062 385.452 
L 873.242975 307.4328 
L 875.478888 359.4456 
L 877.714801 268.4232 
L 879.950714 333.4392 
L 882.186627 320.436 
L 884.422539 268.4232 
L 886.658452 333.4392 
L 888.894365 372.4488 
L 891.130278 229.4136 
L 893.366191 242.4168 
L 895.602104 359.4456 
L 897.838017 346.4424 
L 900.073929 255.42 
L 902.309842 346.4424 
L 904.545755 333.4392 
L 906.781668 229.4136 
L 909.017581 333.4392 
L 911.253494 281.4264 
L 913.489406 346.4424 
L 915.725319 255.42 
L 917.961232 255.42 
L 920.197145 281.4264 
L 922.433058 385.452 
L 926.904884 307.4328 
L 929.140796 229.4136 
L 931.376709 333.4392 
L 933.612622 411.4584 
L 935.848535 346.4424 
L 938.084448 320.436 
L 940.320361 320.436 
L 942.556273 372.4488 
L 944.792186 333.4392 
L 947.028099 372.4488 
L 949.264012 333.4392 
L 951.499925 281.4264 
L 953.735838 320.436 
L 955.971751 294.4296 
L 958.207663 372.4488 
L 960.443576 424.4616 
L 962.679489 268.4232 
L 964.915402 281.4264 
L 967.151315 385.452 
L 969.387228 346.4424 
L 971.62314 268.4232 
L 973.859053 281.4264 
L 976.094966 385.452 
L 978.330879 346.4424 
L 980.566792 281.4264 
L 982.802705 359.4456 
L 985.038618 398.4552 
L 987.27453 268.4232 
L 989.510443 398.4552 
L 991.746356 307.4328 
L 993.982269 385.452 
L 996.218182 320.436 
L 996.218182 320.436 
" style="fill:none;stroke:#ff7f0e;stroke-linecap:square;stroke-width:1.5;"/>
   </g>
   <g id="patch_3">
    <path d="M 144 495.9792 
L 144 66.8736 
" style="fill:none;stroke:#000000;stroke-linecap:square;stroke-linejoin:miter;stroke-width:0.8;"/>
   </g>
   <g id="patch_4">
    <path d="M 1036.8 495.9792 
L 1036.8 66.8736 
" style="fill:none;stroke:#000000;stroke-linecap:square;stroke-linejoin:miter;stroke-width:0.8;"/>
   </g>
   <g id="patch_5">
    <path d="M 144 495.9792 
L 1036.8 495.9792 
" style="fill:none;stroke:#000000;stroke-linecap:square;stroke-linejoin:miter;stroke-width:0.8;"/>
   </g>
   <g id="patch_6">
    <path d="M 144 66.8736 
L 1036.8 66.8736 
" style="fill:none;stroke:#000000;stroke-linecap:square;stroke-linejoin:miter;stroke-width:0.8;"/>
   </g>
   <g id="text_15">
    <!-- Login frequency / Day -->
    <defs>
     <path d="M 9.8125 72.90625 
L 19.671875 72.90625 
L 19.671875 8.296875 
L 55.171875 8.296875 
L 55.171875 0 
L 9.8125 0 
z
" id="DejaVuSans-76"/>
     <path id="DejaVuSans-32"/>
     <path d="M 37.109375 75.984375 
L 37.109375 68.5 
L 28.515625 68.5 
Q 23.6875 68.5 21.796875 66.546875 
Q 19.921875 64.59375 19.921875 59.515625 
L 19.921875 54.6875 
L 34.71875 54.6875 
L 34.71875 47.703125 
L 19.921875 47.703125 
L 19.921875 0 
L 10.890625 0 
L 10.890625 47.703125 
L 2.296875 47.703125 
L 2.296875 54.6875 
L 10.890625 54.6875 
L 10.890625 58.5 
Q 10.890625 67.625 15.140625 71.796875 
Q 19.390625 75.984375 28.609375 75.984375 
z
" id="DejaVuSans-102"/>
     <path d="M 41.109375 46.296875 
Q 39.59375 47.171875 37.8125 47.578125 
Q 36.03125 48 33.890625 48 
Q 26.265625 48 22.1875 43.046875 
Q 18.109375 38.09375 18.109375 28.8125 
L 18.109375 0 
L 9.078125 0 
L 9.078125 54.6875 
L 18.109375 54.6875 
L 18.109375 46.1875 
Q 20.953125 51.171875 25.484375 53.578125 
Q 30.03125 56 36.53125 56 
Q 37.453125 56 38.578125 55.875 
Q 39.703125 55.765625 41.0625 55.515625 
z
" id="DejaVuSans-114"/>
     <path d="M 14.796875 27.296875 
Q 14.796875 17.390625 18.875 11.75 
Q 22.953125 6.109375 30.078125 6.109375 
Q 37.203125 6.109375 41.296875 11.75 
Q 45.40625 17.390625 45.40625 27.296875 
Q 45.40625 37.203125 41.296875 42.84375 
Q 37.203125 48.484375 30.078125 48.484375 
Q 22.953125 48.484375 18.875 42.84375 
Q 14.796875 37.203125 14.796875 27.296875 
z
M 45.40625 8.203125 
Q 42.578125 3.328125 38.25 0.953125 
Q 33.9375 -1.421875 27.875 -1.421875 
Q 17.96875 -1.421875 11.734375 6.484375 
Q 5.515625 14.40625 5.515625 27.296875 
Q 5.515625 40.1875 11.734375 48.09375 
Q 17.96875 56 27.875 56 
Q 33.9375 56 38.25 53.625 
Q 42.578125 51.265625 45.40625 46.390625 
L 45.40625 54.6875 
L 54.390625 54.6875 
L 54.390625 -20.796875 
L 45.40625 -20.796875 
z
" id="DejaVuSans-113"/>
     <path d="M 8.5 21.578125 
L 8.5 54.6875 
L 17.484375 54.6875 
L 17.484375 21.921875 
Q 17.484375 14.15625 20.5 10.265625 
Q 23.53125 6.390625 29.59375 6.390625 
Q 36.859375 6.390625 41.078125 11.03125 
Q 45.3125 15.671875 45.3125 23.6875 
L 45.3125 54.6875 
L 54.296875 54.6875 
L 54.296875 0 
L 45.3125 0 
L 45.3125 8.40625 
Q 42.046875 3.421875 37.71875 1 
Q 33.40625 -1.421875 27.6875 -1.421875 
Q 18.265625 -1.421875 13.375 4.4375 
Q 8.5 10.296875 8.5 21.578125 
z
M 31.109375 56 
z
" id="DejaVuSans-117"/>
     <path d="M 48.78125 52.59375 
L 48.78125 44.1875 
Q 44.96875 46.296875 41.140625 47.34375 
Q 37.3125 48.390625 33.40625 48.390625 
Q 24.65625 48.390625 19.8125 42.84375 
Q 14.984375 37.3125 14.984375 27.296875 
Q 14.984375 17.28125 19.8125 11.734375 
Q 24.65625 6.203125 33.40625 6.203125 
Q 37.3125 6.203125 41.140625 7.25 
Q 44.96875 8.296875 48.78125 10.40625 
L 48.78125 2.09375 
Q 45.015625 0.34375 40.984375 -0.53125 
Q 36.96875 -1.421875 32.421875 -1.421875 
Q 20.0625 -1.421875 12.78125 6.34375 
Q 5.515625 14.109375 5.515625 27.296875 
Q 5.515625 40.671875 12.859375 48.328125 
Q 20.21875 56 33.015625 56 
Q 37.15625 56 41.109375 55.140625 
Q 45.0625 54.296875 48.78125 52.59375 
z
" id="DejaVuSans-99"/>
     <path d="M 32.171875 -5.078125 
Q 28.375 -14.84375 24.75 -17.8125 
Q 21.140625 -20.796875 15.09375 -20.796875 
L 7.90625 -20.796875 
L 7.90625 -13.28125 
L 13.1875 -13.28125 
Q 16.890625 -13.28125 18.9375 -11.515625 
Q 21 -9.765625 23.484375 -3.21875 
L 25.09375 0.875 
L 2.984375 54.6875 
L 12.5 54.6875 
L 29.59375 11.921875 
L 46.6875 54.6875 
L 56.203125 54.6875 
z
" id="DejaVuSans-121"/>
     <path d="M 25.390625 72.90625 
L 33.6875 72.90625 
L 8.296875 -9.28125 
L 0 -9.28125 
z
" id="DejaVuSans-47"/>
     <path d="M 19.671875 64.796875 
L 19.671875 8.109375 
L 31.59375 8.109375 
Q 46.6875 8.109375 53.6875 14.9375 
Q 60.6875 21.78125 60.6875 36.53125 
Q 60.6875 51.171875 53.6875 57.984375 
Q 46.6875 64.796875 31.59375 64.796875 
z
M 9.8125 72.90625 
L 30.078125 72.90625 
Q 51.265625 72.90625 61.171875 64.09375 
Q 71.09375 55.28125 71.09375 36.53125 
Q 71.09375 17.671875 61.125 8.828125 
Q 51.171875 0 30.078125 0 
L 9.8125 0 
z
" id="DejaVuSans-68"/>
    </defs>
    <g transform="translate(524.293125 60.8736)scale(0.12 -0.12)">
     <use xlink:href="#DejaVuSans-76"/>
     <use x="55.697266" xlink:href="#DejaVuSans-111"/>
     <use x="116.878906" xlink:href="#DejaVuSans-103"/>
     <use x="180.355469" xlink:href="#DejaVuSans-105"/>
     <use x="208.138672" xlink:href="#DejaVuSans-110"/>
     <use x="271.517578" xlink:href="#DejaVuSans-32"/>
     <use x="303.304688" xlink:href="#DejaVuSans-102"/>
     <use x="338.509766" xlink:href="#DejaVuSans-114"/>
     <use x="379.591797" xlink:href="#DejaVuSans-101"/>
     <use x="441.115234" xlink:href="#DejaVuSans-113"/>
     <use x="504.591797" xlink:href="#DejaVuSans-117"/>
     <use x="567.970703" xlink:href="#DejaVuSans-101"/>
     <use x="629.494141" xlink:href="#DejaVuSans-110"/>
     <use x="692.873047" xlink:href="#DejaVuSans-99"/>
     <use x="747.853516" xlink:href="#DejaVuSans-121"/>
     <use x="807.033203" xlink:href="#DejaVuSans-32"/>
     <use x="838.820312" xlink:href="#DejaVuSans-47"/>
     <use x="872.511719" xlink:href="#DejaVuSans-32"/>
     <use x="904.298828" xlink:href="#DejaVuSans-68"/>
     <use x="981.300781" xlink:href="#DejaVuSans-97"/>
     <use x="1042.580078" xlink:href="#DejaVuSans-121"/>
    </g>
   </g>
   <g id="legend_1">
    <g id="patch_7">
     <path d="M 843.726562 104.22985 
L 1029.8 104.22985 
Q 1031.8 104.22985 1031.8 102.22985 
L 1031.8 73.8736 
Q 1031.8 71.8736 1029.8 71.8736 
L 843.726562 71.8736 
Q 841.726562 71.8736 841.726562 73.8736 
L 841.726562 102.22985 
Q 841.726562 104.22985 843.726562 104.22985 
z
" style="fill:#ffffff;opacity:0.8;stroke:#cccccc;stroke-linejoin:miter;"/>
    </g>
    <g id="line2d_16">
     <path d="M 845.726562 79.972037 
L 865.726562 79.972037 
" style="fill:none;stroke:#1f77b4;stroke-linecap:square;stroke-width:1.5;"/>
    </g>
    <g id="line2d_17"/>
    <g id="text_16">
     <!-- Login frequency / Day (Before) -->
     <defs>
      <path d="M 31 75.875 
Q 24.46875 64.65625 21.28125 53.65625 
Q 18.109375 42.671875 18.109375 31.390625 
Q 18.109375 20.125 21.3125 9.0625 
Q 24.515625 -2 31 -13.1875 
L 23.1875 -13.1875 
Q 15.875 -1.703125 12.234375 9.375 
Q 8.59375 20.453125 8.59375 31.390625 
Q 8.59375 42.28125 12.203125 53.3125 
Q 15.828125 64.359375 23.1875 75.875 
z
" id="DejaVuSans-40"/>
      <path d="M 19.671875 34.8125 
L 19.671875 8.109375 
L 35.5 8.109375 
Q 43.453125 8.109375 47.28125 11.40625 
Q 51.125 14.703125 51.125 21.484375 
Q 51.125 28.328125 47.28125 31.5625 
Q 43.453125 34.8125 35.5 34.8125 
z
M 19.671875 64.796875 
L 19.671875 42.828125 
L 34.28125 42.828125 
Q 41.5 42.828125 45.03125 45.53125 
Q 48.578125 48.25 48.578125 53.8125 
Q 48.578125 59.328125 45.03125 62.0625 
Q 41.5 64.796875 34.28125 64.796875 
z
M 9.8125 72.90625 
L 35.015625 72.90625 
Q 46.296875 72.90625 52.390625 68.21875 
Q 58.5 63.53125 58.5 54.890625 
Q 58.5 48.1875 55.375 44.234375 
Q 52.25 40.28125 46.1875 39.3125 
Q 53.46875 37.75 57.5 32.78125 
Q 61.53125 27.828125 61.53125 20.40625 
Q 61.53125 10.640625 54.890625 5.3125 
Q 48.25 0 35.984375 0 
L 9.8125 0 
z
" id="DejaVuSans-66"/>
      <path d="M 8.015625 75.875 
L 15.828125 75.875 
Q 23.140625 64.359375 26.78125 53.3125 
Q 30.421875 42.28125 30.421875 31.390625 
Q 30.421875 20.453125 26.78125 9.375 
Q 23.140625 -1.703125 15.828125 -13.1875 
L 8.015625 -13.1875 
Q 14.5 -2 17.703125 9.0625 
Q 20.90625 20.125 20.90625 31.390625 
Q 20.90625 42.671875 17.703125 53.65625 
Q 14.5 64.65625 8.015625 75.875 
z
" id="DejaVuSans-41"/>
     </defs>
     <g transform="translate(873.726562 83.472037)scale(0.1 -0.1)">
      <use xlink:href="#DejaVuSans-76"/>
      <use x="55.697266" xlink:href="#DejaVuSans-111"/>
      <use x="116.878906" xlink:href="#DejaVuSans-103"/>
      <use x="180.355469" xlink:href="#DejaVuSans-105"/>
      <use x="208.138672" xlink:href="#DejaVuSans-110"/>
      <use x="271.517578" xlink:href="#DejaVuSans-32"/>
      <use x="303.304688" xlink:href="#DejaVuSans-102"/>
      <use x="338.509766" xlink:href="#DejaVuSans-114"/>
      <use x="379.591797" xlink:href="#DejaVuSans-101"/>
      <use x="441.115234" xlink:href="#DejaVuSans-113"/>
      <use x="504.591797" xlink:href="#DejaVuSans-117"/>
      <use x="567.970703" xlink:href="#DejaVuSans-101"/>
      <use x="629.494141" xlink:href="#DejaVuSans-110"/>
      <use x="692.873047" xlink:href="#DejaVuSans-99"/>
      <use x="747.853516" xlink:href="#DejaVuSans-121"/>
      <use x="807.033203" xlink:href="#DejaVuSans-32"/>
      <use x="838.820312" xlink:href="#DejaVuSans-47"/>
      <use x="872.511719" xlink:href="#DejaVuSans-32"/>
      <use x="904.298828" xlink:href="#DejaVuSans-68"/>
      <use x="981.300781" xlink:href="#DejaVuSans-97"/>
      <use x="1042.580078" xlink:href="#DejaVuSans-121"/>
      <use x="1101.759766" xlink:href="#DejaVuSans-32"/>
      <use x="1133.546875" xlink:href="#DejaVuSans-40"/>
      <use x="1172.560547" xlink:href="#DejaVuSans-66"/>
      <use x="1241.164062" xlink:href="#DejaVuSans-101"/>
      <use x="1302.6875" xlink:href="#DejaVuSans-102"/>
      <use x="1337.892578" xlink:href="#DejaVuSans-111"/>
      <use x="1399.074219" xlink:href="#DejaVuSans-114"/>
      <use x="1440.15625" xlink:href="#DejaVuSans-101"/>
      <use x="1501.679688" xlink:href="#DejaVuSans-41"/>
     </g>
    </g>
    <g id="line2d_18">
     <path d="M 845.726562 94.650163 
L 865.726562 94.650163 
" style="fill:none;stroke:#ff7f0e;stroke-linecap:square;stroke-width:1.5;"/>
    </g>
    <g id="line2d_19"/>
    <g id="text_17">
     <!-- Login frequency / Day (After) -->
     <defs>
      <path d="M 34.1875 63.1875 
L 20.796875 26.90625 
L 47.609375 26.90625 
z
M 28.609375 72.90625 
L 39.796875 72.90625 
L 67.578125 0 
L 57.328125 0 
L 50.6875 18.703125 
L 17.828125 18.703125 
L 11.1875 0 
L 0.78125 0 
z
" id="DejaVuSans-65"/>
     </defs>
     <g transform="translate(873.726562 98.150163)scale(0.1 -0.1)">
      <use xlink:href="#DejaVuSans-76"/>
      <use x="55.697266" xlink:href="#DejaVuSans-111"/>
      <use x="116.878906" xlink:href="#DejaVuSans-103"/>
      <use x="180.355469" xlink:href="#DejaVuSans-105"/>
      <use x="208.138672" xlink:href="#DejaVuSans-110"/>
      <use x="271.517578" xlink:href="#DejaVuSans-32"/>
      <use x="303.304688" xlink:href="#DejaVuSans-102"/>
      <use x="338.509766" xlink:href="#DejaVuSans-114"/>
      <use x="379.591797" xlink:href="#DejaVuSans-101"/>
      <use x="441.115234" xlink:href="#DejaVuSans-113"/>
      <use x="504.591797" xlink:href="#DejaVuSans-117"/>
      <use x="567.970703" xlink:href="#DejaVuSans-101"/>
      <use x="629.494141" xlink:href="#DejaVuSans-110"/>
      <use x="692.873047" xlink:href="#DejaVuSans-99"/>
      <use x="747.853516" xlink:href="#DejaVuSans-121"/>
      <use x="807.033203" xlink:href="#DejaVuSans-32"/>
      <use x="838.820312" xlink:href="#DejaVuSans-47"/>
      <use x="872.511719" xlink:href="#DejaVuSans-32"/>
      <use x="904.298828" xlink:href="#DejaVuSans-68"/>
      <use x="981.300781" xlink:href="#DejaVuSans-97"/>
      <use x="1042.580078" xlink:href="#DejaVuSans-121"/>
      <use x="1101.759766" xlink:href="#DejaVuSans-32"/>
      <use x="1133.546875" xlink:href="#DejaVuSans-40"/>
      <use x="1172.560547" xlink:href="#DejaVuSans-65"/>
      <use x="1240.921875" xlink:href="#DejaVuSans-102"/>
      <use x="1276.111328" xlink:href="#DejaVuSans-116"/>
      <use x="1315.320312" xlink:href="#DejaVuSans-101"/>
      <use x="1376.84375" xlink:href="#DejaVuSans-114"/>
      <use x="1417.957031" xlink:href="#DejaVuSans-41"/>
     </g>
    </g>
   </g>
  </g>
 </g>
 <defs>
  <clipPath id="p0dd9e4c12d">
   <rect height="429.1056" width="892.8" x="144" y="66.8736"/>
  </clipPath>
 </defs>
</svg>
